<svg xmlns="http://www.w3.org/2000/svg" xmlns:xlink="http://www.w3.org/1999/xlink" version="1.1" id="Layer_1" x="0px" y="0px" width="53.87" height="43.61" enable-background="new 0 0 1200 1200" xml:space="preserve" viewBox="298.22 50 603.56 1100">
<path fill="#E2B48F" d="M864.94,418.921c3.479-51.604-11.958-103.595-42.558-145.212c-25.906-35.233-69.104-72.105-114.368-78.632  c0.124-2.863,2.441-46.462,3.356-65.404c0.918-18.968,3.801-40.346,0.992-59.194c-2.249-15.091-20.291-17.335-32.595-18.081  c-22.596-1.37-57.401-7.895-75.887,8.835c-7.19,6.508-6.033,13.324-6.111,22.173c-0.238,26.894-4.853,96.037-5.275,103.764  c-35.706-4.976-71.752,2.616-103.393,19.703c-22.101,11.935-41.972,27.482-60.638,44.185c-17.68,15.821-36.853,33.238-44.412,56.348  c-20.935,2.677-46.829,14.24-55.32,34.853c-8.944,21.716-2.102,47.862,15.139,62.98c6.067,5.32,12.406,10.173,18.927,14.709  c-2.798,26.12-4.968,52.279-8.897,78.269c-1.962,12.977-8.117,33.317-2.647,47.058c-13.909,96.395-30.473,192.784-39.505,289.786  c-2.468,26.505-4.28,53.072-5.428,79.667c-1.107,25.653,2.347,50.669-0.33,76.458c-2.47,23.8-8.961,49.076-7.581,73.064  c0.779,13.536,23.723,24.383,34.277,30.81c69.178,42.127,155.558,56.108,235.479,54.64c12.832-0.236,35.244,3.098,44.442-7.88  c6.149-7.339,8.15-18.295,11.157-27.102c4.833-14.154,9.664-28.308,14.494-42.462c8.783-25.736,15.164-55.448,28.449-79.193  c10.936-19.545,23.213-38.037,32.06-58.73c10.71-25.051,17.004-51.276,28.578-76.098c9.539-20.458,18.18-41.302,25.977-62.485  c18.288-49.684,32.656-100.646,47.99-151.286c0.174-0.575,0.16-1.104,0.028-1.588c4.248-4.529,6.919-9.983,9.596-16.086  c5.191-11.831,11.379-22.94,17.557-34.287c13.955-25.633,28.326-51.466,40.329-78.1c8.09-2.351,13.889-5.501,20.148-14.135  c6.707-9.252,12.592-20.821,12.806-32.49C902.147,447.592,881.169,429.515,864.94,418.921z M706.386,231.804  c4.892,1.819,9.788,3.628,14.614,5.614c3.401,1.4,19.964,5.317,10.794,10.873c-2.226,1.348-26.067-1.626-26.026-2.529  C705.975,241.108,706.181,236.456,706.386,231.804z M727.362,260.027c9.792,0.394,24.835-4.097,21.019-17.463  c-3.622-12.691-30.376-17.335-40.968-20.44c-0.198-0.058-0.396-0.077-0.594-0.102c0.256-5.823,0.521-11.646,0.775-17.469  c15.66,7.999,32.319,13.893,47.294,23.549c20.19,13.018,38.168,29.07,53.206,47.814c30.234,37.684,44.812,83.598,46.45,131.175  c-6.967-6.282-15.649-11.205-23.294-15.717c-13.494-7.964-27.768-14.455-42.3-20.268c-28.423-11.369-57.724-20.654-87.655-27.06  c1.329-28.551,2.635-57.103,3.913-85.656C712.738,259.181,720.163,259.737,727.362,260.027z M852.819,420.59  c-46.768,26.817-103.867,24.865-156.047,18.859c1.402-29.011,2.777-58.024,4.134-87.037c29.125,11.828,59.692,19.765,88.672,32.059  c13.734,5.826,27.254,12.326,40.016,20.074C837.467,409.325,844.676,416.089,852.819,420.59z M629.322,61.501  c19.754-1.356,40.877-1.11,60.348,2.911c5.394,1.114,17.223,5.427,7.22,12.094c-8.69,5.792-30.24,4.446-40.684,4.039  c-9.495-0.37-18.456-2.973-27.731-5.042c-6.499-1.45-14.111-1.876-20.078-5.26C611.765,64.743,623.846,61.877,629.322,61.501z   M603.221,182.424c1.563-34.047,4.328-68.44,4.378-102.595c5.348,3.477,11.571,5.124,18.44,6.913  c22.582,5.88,55.169,11.954,76.677-0.652c-0.106,7.859-8.602,157.956-7.81,158.084c-17.654-2.852-34.95-7.17-52.151-12.023  c-11.669-3.292-41.68-4.101-40.874-21.378C602.322,201.323,602.788,191.874,603.221,182.424z M601.055,228.257  c27.177,15.13,60.774,24.386,93.177,28.824c-1.727,32.475-8.144,153.035-9.653,180.839c-31.237-4.128-62.356-10.528-92.895-19.058  C594.935,355.333,598.062,291.798,601.055,228.257z M353.622,858.383c0.837-17.753,5.508-84.463,6.752-100.155  c4.71-59.409,19.533-117.648,24.878-176.897c8.724,12.2,25.193,18.357,39.31,21.418c26.115,5.662,53.519,1.074,79.393-3.652  c22.002-4.018,43.928-8.751,65.899-13.199c-0.69,11.87-1.37,23.74-2.056,35.611c-11.432-2.844-22.766-6.065-33.972-9.549  c-3.909-1.215-8.097,4.217-3.552,6.271c12.075,5.456,24.392,9.989,36.918,13.768c-2.753,47.776-5.476,95.554-8.068,143.34  c-0.674,12.435-1.179,24.899-1.628,37.372c-18.726,1.42-37.868,10.504-39.927,31.486c-1.836,18.691,16.43,46.204,37.138,41.668  c-0.399,7.904-2.746,17.86-1.521,25.629c3.062,19.435,42.707,22.957,57.191,22.594c11.024-0.277,48.555-6.283,55.505-11.082  c-4.086,9.828-8.281,19.599-12.752,29.221c-11.264,24.246-23.671,47.935-35.299,72.005c-10.62,21.983-19.907,51.176-46.514,57.808  c-14.037,3.499-74.497-3.391-89.554-6.057c-27.698-4.905-55.016-11.938-81.645-20.998c-20.546-6.991-46.142-18.953-51.402-42.85  c-2.763-12.552,0.963-26.822,2.583-39.304c1.51-11.631,2.15-23.318,2.315-35.04C353.989,911.336,352.375,884.824,353.622,858.383z   M388.033,570.047c0.468-7.357,11.52-12.899,17.518-15.355c21.233-8.693,45.934-3.255,67.676,0.338  c18.587,3.072,37.039,6.867,55.371,11.207c12.503,2.959,25.442,7.34,38.406,10.638c-2.968-0.755-25.17,5.688-30.765,6.95  c-11.657,2.629-23.329,5.195-35.067,7.435c-22.605,4.313-45.84,8.163-68.907,5.906c-9.133-0.894-17.926-3.945-25.738-8.744  c-5.814-3.572-15.192-8.126-17.896-14.841C388.141,572.363,387.961,571.183,388.033,570.047z M557.233,820.269  c-0.669,19.405-1.255,38.826-2.147,58.204c-4.807-2.691-10.101-4.188-14.583-7.787c-7.355-5.905-13.001-14.659-12.755-24.348  C528.168,829.791,543.349,823.803,557.233,820.269z M660.524,916.316c-13.509,5.524-31.616,7.548-45.774,8.328  c-18.418,1.015-36.343-2.466-52.669-10.997c0.005-0.044,0.02-0.081,0.024-0.126c6.791-92.601,12.884-185.19,18.075-277.913  c13.638,3.483,27.517,6.121,41.656,7.905c16.649,2.099,34.091,3.632,51.337,3.149c-2.375,43.743-4.72,87.488-6.959,131.239  C663.859,823.927,663.774,870.37,660.524,916.316z M682.404,478.023c-0.49,8.935-0.981,17.871-1.472,26.806  c-31.15-4.395-62.114-9.99-92.823-16.775c0.462-8.838,0.911-17.677,1.37-26.516C620.198,468.376,651.176,474.175,682.404,478.023z   M590.088,449.748c0.307-5.93,0.614-11.861,0.919-17.791c30.258,8.427,61.428,15.222,92.861,19.202  c-0.296,5.428-0.587,10.856-0.883,16.284C651.754,463.122,620.776,456.962,590.088,449.748z M680.347,515.49  c-0.812,14.779-1.622,29.558-2.434,44.337c-28.866,1.468-57.469,6.148-85.804,11.79c-2.685-1.201-5.44-2.317-8.245-3.367  c1.229-23.022,2.463-46.044,3.671-69.068C616.278,505.357,678.342,515.211,680.347,515.49z M677.309,570.847  c-1.141,20.757-2.268,41.515-3.398,62.273c-16.145,0.21-32.34,0.657-48.421-1.09c-14.999-1.63-29.912-4.216-44.683-7.479  c0.331-5.996,1.842-33.513,2.258-41.277C614.22,577.192,645.523,572.124,677.309,570.847z M579.693,415.391  c-31.755-9.497-62.812-21.263-92.617-35.185c-18.472-8.628-36.476-18.347-53.542-29.517c-15.44-10.107-26.795-23.683-39.058-37.058  c32.788-0.23,65.259,0.264,98.017,3.219c16.618,1.499,78.172,10.842,92.187,10.516C584.167,336.482,580.846,395.167,579.693,415.391  z M686.445,645.865c10.187-0.972,20.215-2.793,29.87-5.801c2.717-0.847,0.948-5.17-1.275-5.445  c-9.251-1.146-18.566-1.51-27.914-1.57c0.318-6.136,0.668-12.266,0.978-18.403c0.747-14.734,1.473-29.47,2.213-44.204  c25.195-0.541,57.403,0.087,76.315,16.875c12.465,11.066,8.484,25.198,2.801,38.569c-4.207,9.902-7.242,19.603-9.928,29.993  c-12.168,47.07-27.438,91.901-44.77,137.305c-15.205,39.829-28.918,80.731-44.946,120.428  C676.28,824.41,681.737,735.196,686.445,645.865z M455.652,242.893c5.189-3.641,10.389-7.153,15.508-10.566  c33.645-22.431,70.814-37.469,111.71-36.335c3.033,0.084,6.072,0.317,9.107,0.554c-0.218,3.966-0.438,7.932-0.657,11.898  c-0.001,0.006-6.571,3.367-6.996,6.354c-0.602,4.227,2.742,7.284,6.143,9.083c-1.758,31.543-3.513,63.085-5.289,94.627  c-13.257-4.476-142.975-17.221-192.434-11.975C406.782,280.28,431.078,260.138,455.652,242.893z M340.042,383.316  c-8.585-16.564-5.004-39.232,9.037-51.15c10.449-8.87,22.823-14.185,35.858-17.793c18.2,33.156,48.737,52.45,81.56,69.665  c33.361,17.497,68.611,31.18,104.621,42.146c2.597,0.791,5.216,1.551,7.829,2.321c-0.35,6.115-0.69,12.23-1.042,18.345  c-76.9-18.768-152.131-42.379-211.903-96.949c-2.996-2.736-8.703-0.269-5.476,3.62c49.815,60.047,128.781,84.055,201.813,101.72  c4.958,1.199,9.921,2.364,14.89,3.513c-0.51,8.83-1.025,17.659-1.537,26.489c-13.685-3.173-27.322-6.559-40.894-10.198  c-26.555-7.119-52.865-15.124-78.895-23.971c-21.992-7.475-44.074-14.387-63.791-26.74  C374.923,413.563,349.705,401.96,340.042,383.316z M606.017,1129.511c-4.025,6.362-10.721,6.273-17.766,6.66  c-77.362,4.256-160.606-6.369-230.42-41.576c-13.975-7.047-34.616-16.172-44.754-28.496c-3.273-3.979-3.357-10.718-2.631-17.411  c81.087,67.295,197.481,78.289,298.967,72.742C608.524,1124.328,607.498,1127.172,606.017,1129.511z M807.416,606.903  c-5.571,10.693-8.571,23.492-17.432,32.176c-3.13,3.068-1.4,8.186,1.925,9.191c-12.828,40.209-25.081,80.65-39.115,120.455  c-6.711,19.034-13.947,37.872-21.9,56.424c-8.461,19.737-18.809,39.624-26.686,59.985c-8.185,21.155-13.761,43.24-24.474,63.375  c-10.187,19.146-23.994,37.378-31.088,57.973c-8.293,24.07-16.582,48.14-24.869,72.212c-3.784,10.992-7.567,21.984-11.35,32.977  c-104.881-0.993-208.95-10.834-298.589-70.227c-0.677-0.449-1.461-0.68-2.261-0.737c0.361-2.255,3.91-29.807,5.283-41.644  c1.263-10.888,2.338-21.819,2.616-32.783c0.337-13.32-1.936-26.334-2.105-39.582c-0.321-25.235,2.251-50.896,4.26-76.034  c7.964-99.622,29.367-197.942,37.303-297.461c2.099-0.161,4.189-1.406,3.94-3.532c-4.806-41.03,7.651-82.39,8.669-123.919  c35.419,22.362,76.103,35.344,116.156,47.581c28.805,8.801,57.955,16.479,87.341,23.112c-1.307,22.522-2.614,45.044-3.924,67.566  c-18.446-5.44-38.245-8.757-56.14-12.681c-19.759-4.333-39.834-8.393-60.004-10.296c-22.027-2.078-55.552-3.238-71.092,15.857  c-10.447,12.834-10.098,36.585-12.914,52.137c-4.334,23.925-8.49,47.886-12.104,71.931c-3.82,25.411-7.044,50.92-9.208,76.528  c-2.569,30.394-3.112,60.475-6.711,90.764c-3.442,28.967-0.17,59.048-0.656,88.163c-0.198,11.797-0.881,23.54-2.398,35.244  c-2.014,15.55-6.053,32.783-0.988,48.491c4.899,15.197,17.911,28.018,31.193,36.267c22.011,13.671,52.423,19.481,77.383,25.436  c28.91,6.897,58.384,11.482,88.02,13.741c25.37,1.934,49.837,1.386,67.541-19.317c15.769-18.439,24.044-43.831,34.694-65.338  c12.476-25.194,25.181-50.296,36.002-76.262c11.654-27.964,21.206-56.935,31.971-85.27c19.882-52.331,41.33-104.101,55.912-158.22  c6.04-22.415,11.258-44.356,19.8-65.936c7.074-17.868,6.651-35.937-9.377-48.664c-21.582-17.137-54.738-17.754-81.169-17.23  c0.703-14.047,1.414-28.094,2.11-42.141c53.957,7.193,111.302,12.227,164.217,0.05C845.078,536.168,812.817,596.538,807.416,606.903  z M881.154,496.856c-8.04,10.7-21.206,11.882-33.77,14.004c-50.12,8.463-103.624,2.463-153.871-4.279  c0.446-9.037,0.874-18.075,1.316-27.113c5.017,0.53,10.036,1.038,15.066,1.455c46.815,3.882,97.696,4.694,143.429-7.48  c4.209-1.12,1.049-6.499-2.343-6.181c-24.754,2.317-48.993,6.297-73.954,6.689c-21.347,0.335-75.801-4.155-81.693-4.874  c0.268-5.505,0.535-11.011,0.802-16.516c28.561,2.925,57.256,3.436,85.594,0.543c26.78-2.735,60.307-8.346,79.516-29.15  c0.003-0.001,0.008-0.002,0.011-0.004c0.073-0.002,0.147-0.009,0.22-0.015c13.151,9.04,29.313,23.129,31.841,38.479  C895.313,474.531,888.172,487.514,881.154,496.856z M442.891,145.675c-4.385,11.196-6.787,27.805,8.191,29.74  c8.038,1.038,13.528-5.121,19.06-9.834c4.657-3.968,10.466-7.753,13.321-13.304c10.879,4.42,27.324,10.899,32.262-1.643  c4.143-10.523-3.103-19.63-11.509-25.224c7.725-6.55,16.169-16.731,10.281-24.087c-3.174-3.967-8.944-4.124-13.58-3.904  c-6.553,0.311-13.032,1.495-19.122,3.841c-2.303-5.764-7.522-10.975-11.36-15.523c-4.182-4.955-9.737-8.902-16.587-7.817  c-15.733,2.491-10.132,23.833-7.988,34.83c-11.353,0.738-29.728,4.163-29.12,16.801  C417.227,139.645,432.786,146.891,442.891,145.675z M436.788,122.261c5.923-1.901,10.764-2.012,13.695-4.641  c4.153-3.757,2.283-33.153,7.601-30.631c1.389,0.66,2.417,1.88,3.386,3.077c4.515,5.579,9.325,16.132,16.596,18.605  c7.77,2.643,16.943-4.447,25.479-1.301c3.34,1.231-4.706,9.473-5.65,10.524c-2.302,2.566-7.153,5.49-6.744,9.511  c0.565,5.556,23.072,11.339,13.677,20.539c-9.133,8.943-21.613-11.241-28.568-0.729c-4.45,6.726-26.226,31.508-27.185,10.848  c-0.2-4.52,1.667-9.057,1.306-13.613c-0.652-8.223-16.65-7.97-22.216-13.504C423.522,126.322,433.915,123.183,436.788,122.261z   M392.631,210.258c3.706,5.011,14.278,16.722,13.238,23.371c-0.646,4.129,5.805,4.459,7.892,2.305  c3.847-3.972,7.744-7.886,11.778-11.671c3.331-3.125,9.187-10.403,13.716-11.455c5.426-1.261,5.883-9.037-0.439-8.278  c-15.973,1.918-22.566-14.591-22.626-27.907c-0.021-4.509-7.071-5.43-8.149-1.005c-2.686,11.027-7.464,20.442-14.011,29.514  C392.144,206.095,391.018,208.076,392.631,210.258z M410.462,192.875c2.745,8.369,7.906,15.382,15.767,18.464  c-4.657,3.754-9,8.426-12.958,12.793c-2.885-6.04-8.322-12.172-12.016-16.516C404.958,202.984,407.996,198.078,410.462,192.875z   M365.956,148.243c4.187-0.027,8.364-0.187,12.542-0.353c-0.258-4.405-0.46-8.81-0.494-13.236c-0.031-3.981,6.448-2.202,7.055,0.778  c0.824,4.048,1.546,8.09,2.206,12.149c5.264-0.145,9.753-0.556,14.25,2.713c1.993,1.449,1.888,4.55-0.68,5.228  c-4.005,1.057-8.056,1.389-12.129,1.367c0.57,3.964,0.812,7.651-1.03,11.581c-0.7,1.492-2.594,1.505-3.838,0.752  c-4.873-2.951-4.513-7.639-4.806-12.91c-4.384-0.45-8.774-1.043-13.145-1.387C361.523,154.58,361.47,148.272,365.956,148.243z   M725.049,1042.986c-0.599-0.281-1.033-0.698-1.261-1.296c-3.578-9.386-6.953-23.426-18.574-25.75  c-6.475-1.367-8.994,3.421-10.759,8.715c-2.07,6.211-3.822,12.721-3.979,19.298c-11.185-0.617-30.982-0.211-32.227,12.375  c-0.565,5.707,3.694,9.256,8.584,11.128c4.328,1.657,8.596,3.603,13.013,4.276c-6.125,11.158-12.015,28.443,4.699,31.371  c11.241,1.969,19.613-7.376,23.21-17.296c8.576,6.106,21.639,11.653,31.05,6.263c5.498-3.149,5.397-8.517,2.77-13.602  c-0.687-1.329-9.322-12.399-10.412-12.125c7.061-1.776,24.066-7.049,20.743-17.479  C748.276,1037.472,730.301,1045.451,725.049,1042.986z M740.107,1053.711c-0.921,2.898-3.559,4.036-6.571,4.744  c-4.935,1.161-10.876,1.171-11.911,5.895c-1.204,5.506,7.003,11.513,10.12,15.423c0.926,1.161,1.886,2.462,1.859,3.954  c-0.127,6.078-23.756-1.547-24.237-4.917c-0.438-3.074-6.047-3.476-7.421-0.689c-2.818,5.713-6.501,18.944-15.376,16.545  c-8.925-2.415-1.325-14.153,0.458-19.172c4.949-13.932-9.433-12.653-18.454-19.496c0.536-0.16,1.085-0.206,1.652-0.138  c7.633,0.915,27.407-1.366,28.05-9.6c0.592-7.58,1.545-16.453,5.976-22.857c1.352-1.954,10.243,17.794,10.863,18.981  c4.349,8.326,10.477,8.331,18.805,7.691C737.401,1049.807,741.382,1049.679,740.107,1053.711z M722.502,1002.805  c8.762-9.183,18.478-17.095,29.596-23.275c3.781-2.101,0.159-6.419-3.04-6.19c-13.644,0.974-19.227-13.337-22.928-23.996  c-1.157-3.331-7.676-3.402-8.339,0.342c-1.15,6.493-2.77,14.059-6.234,19.772c-3.352,5.528-4.739,6.459-1.834,11.716  c3.445,6.235,6.693,10.303,5.98,18.329C715.416,1002.733,720.017,1005.409,722.502,1002.805z M723.11,963.469  c3.818,7.043,8.902,13.142,15.968,15.671c-5.654,3.865-11.009,8.039-16.076,12.656c-0.929-5.191-3.096-9.896-6.524-14.18  C719.18,973.057,721.405,968.367,723.11,963.469z M774.842,1016.306c-4.954,2.472-10.659,3.595-16.501,4.142  c-0.021,3.355-0.434,6.638-1.498,9.653c-1.054,2.985-6.407,2.01-7.41-0.472c-1.04-2.576-0.937-5.661-0.783-8.677  c-3.087,0.063-6.121,0.075-9.01,0.143c-5.077,0.12-4.657-7.227,0.083-7.539c2.95-0.194,5.888-0.473,8.822-0.786  c-0.316-3.558-0.879-7.079-1.612-10.587c-0.993-4.746,6.811-4.848,8.08-0.837c1.005,3.178,1.927,6.674,2.553,10.259  c0.741-0.11,1.485-0.184,2.226-0.302c4.54-0.72,9.316-2.161,13.768-0.373C775.459,1011.693,777.388,1015.036,774.842,1016.306z   M530.06,1000.02c-11.933,13.643-16.081,36.183-3.698,49.316c15.06,15.971,45.628,14.284,58.348-3.123  c11.462-15.686,9.66-38.044-5.665-50.561C564.751,983.977,542.082,986.276,530.06,1000.02z M574.214,1006.375  c10.881,11.543,9.725,31.032-4.73,39.433c-9.319,5.416-30.167,2.139-36.789-6.901c-8.103-11.064-1.722-26.329,7.005-34.947  C549.583,994.203,565.018,996.62,574.214,1006.375z M421.207,1035.415c21.299,1.011,38.563-5.111,43.618-27.921  c5.237-23.634-15.71-38.533-36.697-41.574c-25.214-3.653-47.508,7.099-44.931,35.208  C384.912,1019.831,402.864,1034.544,421.207,1035.415z M402.442,977.892c9.454-4.444,25.998-5.631,35.717-1.054  c19.203,9.046,25.419,39.683,1.193,47.246c-10.248,3.199-27.185,1.751-35.296-5.692  C392.418,1007.71,384.227,986.454,402.442,977.892z M473.514,915.724c-1.672,2.046-2.984,4.225-3.968,6.494  c-7.331,16.895,3.505,38.745,18.959,47.557c18.86,10.754,42.274-1.45,51.549-19.436c9.336-18.104,1.149-39.048-18.102-45.849  C506.115,898.895,484.552,902.216,473.514,915.724z M504.942,911.914c20.887,1.935,39.378,20.13,22.507,39.411  c-8.702,9.944-22.153,13.64-34.08,7.188C467.608,944.578,475.391,909.177,504.942,911.914z M391.987,872.958  c6.549,18.559,29.574,26.14,47.619,20.37c18.531-5.925,36.517-29.809,25.142-49.131c-10.374-17.621-35.075-21-52.925-14.45  c-15.89,5.831-24.728,24.258-20.662,40.464C391.396,871.152,391.672,872.068,391.987,872.958z M400.806,851.112  c8.409-17.22,36.761-18.299,50.07-6.859c14.473,12.442,2.658,35.021-13.358,39.513C418.135,889.202,389.164,874.951,400.806,851.112  z M446.631,798.047c20.102,8.85,46.806,2.688,54.827-19.219c6.754-18.447-1.809-38.321-19.668-46.416  c-16.411-7.439-38.696-2.104-49.437,12.535C419.246,762.811,426.527,789.196,446.631,798.047z M440.02,751.323  c8.66-10.896,26.902-16.158,40.651-7.287c12.978,8.374,18.093,27.279,6.57,39.368c-11.208,11.759-35.226,9.11-45.461-2.597  C432.49,770.179,433.714,759.258,440.02,751.323z M468.243,274.543c9.34-26.028,40.335-44.313,67.91-40.939  c5.032,0.616,4.326,7.664-0.006,8.876c-12.208,3.415-24.156,6.35-34.9,13.369c-9.855,6.438-16.813,15.938-26.252,22.778  C472.232,280.631,466.891,278.313,468.243,274.543z M383.727,516.349c2.008-11.506,5.262-26.541,13.488-35.231  c8.148-8.607,17.624-1.785,26.523,2.374c12.882,6.021,25.965,11.502,39.342,16.326c14.139,5.099,29.787,7.786,42.369,16.156  c3.215,2.138,0.267,7.02-2.536,7.748c-16.683,4.338-39.291-7.383-54.644-13.624c-10.285-4.181-20.412-8.754-30.241-13.922  c-4.528-2.381-9.388-6.878-14.961-4.554c-6.776,2.826-8.425,17.707-9.92,24.964C392.083,521.758,382.693,522.27,383.727,516.349z" style="fill: rgb(99, 102, 241);"/>
</svg>